<svg width="80" height="80" viewBox="0 0 80 80" fill="none" xmlns="http://www.w3.org/2000/svg">
<g clip-path="url(#clip0_241_911)">
<rect width="80" height="80" fill="white"/>
<path d="M24.4263 62.392C21.4396 62.392 18.789 61.9067 16.4743 60.936C14.197 59.9653 12.3863 58.6213 11.0423 56.904C9.69831 55.1867 8.93298 53.2453 8.74631 51.08H20.6743C20.8236 52.0133 21.2156 52.704 21.8503 53.152C22.5223 53.6 23.3623 53.824 24.3703 53.824C25.005 53.824 25.509 53.6933 25.8823 53.432C26.2556 53.1333 26.4423 52.7787 26.4423 52.368C26.4423 51.6587 26.0503 51.1547 25.2663 50.856C24.4823 50.5573 23.157 50.2213 21.2903 49.848C19.013 49.4 17.1276 48.9147 15.6343 48.392C14.1783 47.8693 12.8903 46.9733 11.7703 45.704C10.6876 44.4347 10.1463 42.68 10.1463 40.44C10.1463 38.4987 10.6503 36.744 11.6583 35.176C12.7036 33.5707 14.2343 32.32 16.2503 31.424C18.2663 30.4907 20.7116 30.024 23.5863 30.024C27.8423 30.024 31.165 31.0693 33.5543 33.16C35.981 35.2507 37.437 37.976 37.9223 41.336H26.8903C26.7036 40.4773 26.3116 39.824 25.7143 39.376C25.117 38.8907 24.3143 38.648 23.3063 38.648C22.6716 38.648 22.1863 38.7787 21.8503 39.04C21.5143 39.264 21.3463 39.6187 21.3463 40.104C21.3463 40.7387 21.7383 41.224 22.5223 41.56C23.3063 41.8587 24.557 42.176 26.2743 42.512C28.5516 42.96 30.4743 43.464 32.0423 44.024C33.6103 44.584 34.973 45.5547 36.1303 46.936C37.2876 48.28 37.8663 50.1467 37.8663 52.536C37.8663 54.4027 37.325 56.0827 36.2423 57.576C35.1596 59.0693 33.5916 60.2453 31.5383 61.104C29.5223 61.9627 27.1516 62.392 24.4263 62.392Z" fill="#191919"/>
<path fill-rule="evenodd" clip-rule="evenodd" d="M72 15V67H48V15H72Z" fill="#FF5851"/>
</g>
<defs>
<clipPath id="clip0_241_911">
<rect width="80" height="80" fill="white"/>
</clipPath>
</defs>
</svg>
